<svg width="300" height="300" viewBox="0 0 300 300" fill="none" xmlns="http://www.w3.org/2000/svg">
<g clip-path="url(#clip0_4_2)">
<rect width="300" height="300" rx="67" fill="url(#paint0_linear_4_2)"/>
<path d="M154.888 264.329C134.165 264.329 115.366 259.592 98.4915 250.119C81.913 240.645 68.739 227.323 58.9695 210.153C49.2 192.686 44.3153 172.259 44.3153 148.871C44.3153 126.076 49.052 106.093 58.5254 88.922C67.9989 71.4553 81.0249 57.8373 97.6034 48.0678C114.182 38.2983 133.277 33.4135 154.888 33.4135C180.94 33.4135 202.847 40.2226 220.61 53.8407C238.669 67.4587 250.067 85.6655 254.803 108.461H216.614C213.653 94.8429 206.4 84.3333 194.854 76.9322C183.308 69.235 169.838 65.3864 154.444 65.3864C138.754 65.3864 125.58 69.235 114.922 76.9322C104.264 84.6294 96.1232 94.8429 90.4983 107.573C85.1695 120.303 82.5051 134.069 82.5051 148.871C82.5051 165.154 85.6136 179.66 91.8305 192.39C98.0475 205.12 106.485 215.037 117.142 222.142C128.096 229.247 140.53 232.8 154.444 232.8C169.838 232.8 183.308 229.099 194.854 221.698C206.4 214.001 213.653 203.195 216.614 189.281H254.803C251.843 204.084 245.774 217.11 236.597 228.359C227.419 239.609 215.873 248.49 201.959 255.003C188.045 261.22 172.355 264.329 154.888 264.329Z" fill="white"/>
</g>
<defs>
<linearGradient id="paint0_linear_4_2" x1="-62" y1="-239" x2="150" y2="300" gradientUnits="userSpaceOnUse">
<stop stop-color="#0045F2" stop-opacity="0.7"/>
<stop offset="1" stop-opacity="0.7"/>
</linearGradient>
<clipPath id="clip0_4_2">
<rect width="300" height="300" rx="67" fill="white"/>
</clipPath>
</defs>
</svg>
